<mxfile host="app.diagrams.net" modified="2024-03-10T08:01:03.583Z" agent="Mozilla/5.0 (Windows NT 10.0; Win64; x64) AppleWebKit/537.36 (KHTML, like Gecko) Chrome/122.0.0.0 Safari/537.36" etag="AW0uEAaUEtURI933gPzw" version="24.0.4" type="device" pages="2">
  <diagram name="Main" id="SUDP4opzdkNfmbd2tges">
    <mxGraphModel dx="1687" dy="908" grid="1" gridSize="10" guides="1" tooltips="1" connect="1" arrows="1" fold="1" page="1" pageScale="1" pageWidth="850" pageHeight="1100" math="0" shadow="0">
      <root>
        <mxCell id="0" />
        <mxCell id="1" parent="0" />
        <mxCell id="thOP-P8eI406Yagc8uy--1" value="" style="rounded=1;whiteSpace=wrap;html=1;" vertex="1" parent="1">
          <mxGeometry x="40" y="60" width="760" height="200" as="geometry" />
        </mxCell>
        <mxCell id="thOP-P8eI406Yagc8uy--2" value="Avatar" style="ellipse;whiteSpace=wrap;html=1;aspect=fixed;" vertex="1" parent="1">
          <mxGeometry x="70" y="80" width="160" height="160" as="geometry" />
        </mxCell>
        <mxCell id="thOP-P8eI406Yagc8uy--3" value="Introduction" style="rounded=0;whiteSpace=wrap;html=1;" vertex="1" parent="1">
          <mxGeometry x="260" y="80" width="510" height="160" as="geometry" />
        </mxCell>
        <mxCell id="thOP-P8eI406Yagc8uy--4" value="Portfolio" style="rounded=1;whiteSpace=wrap;html=1;" vertex="1" parent="1">
          <mxGeometry x="490" y="20" width="90" height="30" as="geometry" />
        </mxCell>
        <mxCell id="thOP-P8eI406Yagc8uy--6" value="Blog" style="rounded=1;whiteSpace=wrap;html=1;" vertex="1" parent="1">
          <mxGeometry x="600" y="20" width="90" height="30" as="geometry" />
        </mxCell>
        <mxCell id="thOP-P8eI406Yagc8uy--8" value="About" style="rounded=1;whiteSpace=wrap;html=1;" vertex="1" parent="1">
          <mxGeometry x="710" y="20" width="90" height="30" as="geometry" />
        </mxCell>
        <mxCell id="thOP-P8eI406Yagc8uy--14" value="" style="rounded=0;whiteSpace=wrap;html=1;" vertex="1" parent="1">
          <mxGeometry x="40" y="280" width="760" height="640" as="geometry" />
        </mxCell>
        <mxCell id="thOP-P8eI406Yagc8uy--15" value="&lt;ul&gt;&lt;li&gt;University&lt;/li&gt;&lt;li&gt;Certificate&lt;/li&gt;&lt;li&gt;Contact&lt;/li&gt;&lt;/ul&gt;" style="rounded=0;whiteSpace=wrap;html=1;align=left;" vertex="1" parent="1">
          <mxGeometry x="40" y="940" width="760" height="110" as="geometry" />
        </mxCell>
        <mxCell id="thOP-P8eI406Yagc8uy--16" value="About" style="rounded=0;whiteSpace=wrap;html=1;" vertex="1" parent="1">
          <mxGeometry x="40" y="940" width="70" height="30" as="geometry" />
        </mxCell>
        <mxCell id="thOP-P8eI406Yagc8uy--17" value="Video / Image&lt;div&gt;Contains link to relevant article&lt;/div&gt;" style="rounded=1;whiteSpace=wrap;html=1;" vertex="1" parent="1">
          <mxGeometry x="110" y="310" width="190" height="160" as="geometry" />
        </mxCell>
        <mxCell id="thOP-P8eI406Yagc8uy--18" value="" style="rounded=1;whiteSpace=wrap;html=1;" vertex="1" parent="1">
          <mxGeometry x="330" y="310" width="190" height="160" as="geometry" />
        </mxCell>
        <mxCell id="thOP-P8eI406Yagc8uy--19" value="" style="rounded=1;whiteSpace=wrap;html=1;" vertex="1" parent="1">
          <mxGeometry x="550" y="310" width="190" height="160" as="geometry" />
        </mxCell>
        <mxCell id="thOP-P8eI406Yagc8uy--20" value="" style="rounded=1;whiteSpace=wrap;html=1;" vertex="1" parent="1">
          <mxGeometry x="110" y="500" width="190" height="160" as="geometry" />
        </mxCell>
        <mxCell id="thOP-P8eI406Yagc8uy--21" value="" style="rounded=1;whiteSpace=wrap;html=1;" vertex="1" parent="1">
          <mxGeometry x="330" y="500" width="190" height="160" as="geometry" />
        </mxCell>
        <mxCell id="thOP-P8eI406Yagc8uy--22" value="" style="rounded=1;whiteSpace=wrap;html=1;" vertex="1" parent="1">
          <mxGeometry x="550" y="500" width="190" height="160" as="geometry" />
        </mxCell>
        <mxCell id="thOP-P8eI406Yagc8uy--23" value="" style="ellipse;whiteSpace=wrap;html=1;aspect=fixed;" vertex="1" parent="1">
          <mxGeometry x="380" y="880" width="20" height="20" as="geometry" />
        </mxCell>
        <mxCell id="thOP-P8eI406Yagc8uy--24" value="" style="ellipse;whiteSpace=wrap;html=1;aspect=fixed;fillColor=#000000;" vertex="1" parent="1">
          <mxGeometry x="415" y="880" width="20" height="20" as="geometry" />
        </mxCell>
        <mxCell id="thOP-P8eI406Yagc8uy--26" value="" style="ellipse;whiteSpace=wrap;html=1;aspect=fixed;fillColor=#000000;" vertex="1" parent="1">
          <mxGeometry x="450" y="880" width="20" height="20" as="geometry" />
        </mxCell>
        <mxCell id="thOP-P8eI406Yagc8uy--27" value="" style="shape=singleArrow;whiteSpace=wrap;html=1;" vertex="1" parent="1">
          <mxGeometry x="750" y="565" width="40" height="30" as="geometry" />
        </mxCell>
        <mxCell id="O2qUOqpIcak0R9etpHlp-1" value="Portfolio" style="rounded=0;whiteSpace=wrap;html=1;" vertex="1" parent="1">
          <mxGeometry x="40" y="280" width="70" height="30" as="geometry" />
        </mxCell>
        <mxCell id="D0aoPfVYf3M0pGr5bRpo-8" value="" style="rounded=1;whiteSpace=wrap;html=1;" vertex="1" parent="1">
          <mxGeometry x="110" y="690" width="190" height="160" as="geometry" />
        </mxCell>
        <mxCell id="D0aoPfVYf3M0pGr5bRpo-9" value="" style="rounded=1;whiteSpace=wrap;html=1;" vertex="1" parent="1">
          <mxGeometry x="330" y="690" width="190" height="160" as="geometry" />
        </mxCell>
        <mxCell id="D0aoPfVYf3M0pGr5bRpo-10" value="" style="rounded=1;whiteSpace=wrap;html=1;" vertex="1" parent="1">
          <mxGeometry x="550" y="690" width="190" height="160" as="geometry" />
        </mxCell>
        <mxCell id="D0aoPfVYf3M0pGr5bRpo-11" value="" style="shape=singleArrow;whiteSpace=wrap;html=1;rotation=-180;" vertex="1" parent="1">
          <mxGeometry x="55" y="565" width="40" height="30" as="geometry" />
        </mxCell>
      </root>
    </mxGraphModel>
  </diagram>
  <diagram id="4f3Hm4ilfz4CSEHM8xVl" name="Blog">
    <mxGraphModel dx="1434" dy="772" grid="1" gridSize="10" guides="1" tooltips="1" connect="1" arrows="1" fold="1" page="1" pageScale="1" pageWidth="850" pageHeight="1100" math="0" shadow="0">
      <root>
        <mxCell id="0" />
        <mxCell id="1" parent="0" />
        <mxCell id="k20J4cIu9uPl6lMVZndd-1" value="Latest blog post" style="text;html=1;align=center;verticalAlign=middle;whiteSpace=wrap;rounded=0;fontStyle=1" vertex="1" parent="1">
          <mxGeometry x="40" y="250" width="110" height="30" as="geometry" />
        </mxCell>
        <mxCell id="2eT4chLVeKD-HAh_roih-1" value="Background image" style="rounded=1;whiteSpace=wrap;html=1;" vertex="1" parent="1">
          <mxGeometry x="40" y="30" width="760" height="200" as="geometry" />
        </mxCell>
        <mxCell id="i32bHwDSrPiSoYULtQAG-1" value="" style="rounded=1;whiteSpace=wrap;html=1;" vertex="1" parent="1">
          <mxGeometry x="40" y="290" width="430" height="130" as="geometry" />
        </mxCell>
        <mxCell id="i32bHwDSrPiSoYULtQAG-2" value="Image" style="rounded=0;whiteSpace=wrap;html=1;" vertex="1" parent="1">
          <mxGeometry x="60" y="300" width="150" height="110" as="geometry" />
        </mxCell>
        <mxCell id="i32bHwDSrPiSoYULtQAG-3" value="Title" style="rounded=0;whiteSpace=wrap;html=1;" vertex="1" parent="1">
          <mxGeometry x="220" y="330" width="230" height="20" as="geometry" />
        </mxCell>
        <mxCell id="i32bHwDSrPiSoYULtQAG-5" value="Description" style="rounded=0;whiteSpace=wrap;html=1;" vertex="1" parent="1">
          <mxGeometry x="220" y="360" width="230" height="50" as="geometry" />
        </mxCell>
        <mxCell id="i32bHwDSrPiSoYULtQAG-7" value="Topics" style="text;html=1;align=center;verticalAlign=middle;whiteSpace=wrap;rounded=0;fontStyle=1" vertex="1" parent="1">
          <mxGeometry x="590" y="250" width="110" height="30" as="geometry" />
        </mxCell>
        <mxCell id="i32bHwDSrPiSoYULtQAG-8" value="Linux" style="rounded=1;whiteSpace=wrap;html=1;" vertex="1" parent="1">
          <mxGeometry x="585" y="280" width="125" height="30" as="geometry" />
        </mxCell>
        <mxCell id="i32bHwDSrPiSoYULtQAG-9" value="Programming" style="rounded=1;whiteSpace=wrap;html=1;" vertex="1" parent="1">
          <mxGeometry x="585" y="320" width="125" height="30" as="geometry" />
        </mxCell>
        <mxCell id="i32bHwDSrPiSoYULtQAG-10" value="Topic" style="rounded=0;whiteSpace=wrap;html=1;" vertex="1" parent="1">
          <mxGeometry x="220" y="300" width="80" height="20" as="geometry" />
        </mxCell>
        <mxCell id="i32bHwDSrPiSoYULtQAG-11" value="PCB" style="rounded=1;whiteSpace=wrap;html=1;" vertex="1" parent="1">
          <mxGeometry x="585" y="360" width="125" height="30" as="geometry" />
        </mxCell>
        <mxCell id="YK-qp69t6onm6DotRBDQ-1" value="Finance" style="rounded=1;whiteSpace=wrap;html=1;" vertex="1" parent="1">
          <mxGeometry x="585" y="400" width="125" height="30" as="geometry" />
        </mxCell>
        <mxCell id="y4qhwHmETtJ04CH2L4u_-1" value="Tags" style="text;html=1;align=center;verticalAlign=middle;whiteSpace=wrap;rounded=0;fontStyle=1" vertex="1" parent="1">
          <mxGeometry x="587.5" y="460" width="110" height="30" as="geometry" />
        </mxCell>
        <mxCell id="y4qhwHmETtJ04CH2L4u_-3" value="#yocto" style="text;html=1;align=center;verticalAlign=middle;whiteSpace=wrap;rounded=0;" vertex="1" parent="1">
          <mxGeometry x="555" y="500" width="60" height="30" as="geometry" />
        </mxCell>
        <mxCell id="y4qhwHmETtJ04CH2L4u_-4" value="#stm32" style="text;html=1;align=center;verticalAlign=middle;whiteSpace=wrap;rounded=0;" vertex="1" parent="1">
          <mxGeometry x="615" y="500" width="60" height="30" as="geometry" />
        </mxCell>
        <mxCell id="y4qhwHmETtJ04CH2L4u_-5" value="#altium" style="text;html=1;align=center;verticalAlign=middle;whiteSpace=wrap;rounded=0;" vertex="1" parent="1">
          <mxGeometry x="675" y="500" width="60" height="30" as="geometry" />
        </mxCell>
        <mxCell id="y4qhwHmETtJ04CH2L4u_-6" value="#expenses" style="text;html=1;align=center;verticalAlign=middle;whiteSpace=wrap;rounded=0;" vertex="1" parent="1">
          <mxGeometry x="555" y="530" width="60" height="30" as="geometry" />
        </mxCell>
        <mxCell id="y4qhwHmETtJ04CH2L4u_-7" value="#C/C++" style="text;html=1;align=center;verticalAlign=middle;whiteSpace=wrap;rounded=0;" vertex="1" parent="1">
          <mxGeometry x="615" y="530" width="60" height="30" as="geometry" />
        </mxCell>
        <mxCell id="y4qhwHmETtJ04CH2L4u_-8" value="#tips" style="text;html=1;align=center;verticalAlign=middle;whiteSpace=wrap;rounded=0;" vertex="1" parent="1">
          <mxGeometry x="675" y="530" width="60" height="30" as="geometry" />
        </mxCell>
        <mxCell id="y4qhwHmETtJ04CH2L4u_-9" value="" style="endArrow=none;html=1;rounded=0;" edge="1" parent="1">
          <mxGeometry width="50" height="50" relative="1" as="geometry">
            <mxPoint x="530" y="1080" as="sourcePoint" />
            <mxPoint x="530" y="250" as="targetPoint" />
          </mxGeometry>
        </mxCell>
        <mxCell id="Yz_5xkrLealIDKz5aNyy-1" value="" style="rounded=1;whiteSpace=wrap;html=1;" vertex="1" parent="1">
          <mxGeometry x="40" y="450" width="430" height="130" as="geometry" />
        </mxCell>
        <mxCell id="Yz_5xkrLealIDKz5aNyy-2" value="Image" style="rounded=0;whiteSpace=wrap;html=1;" vertex="1" parent="1">
          <mxGeometry x="60" y="460" width="150" height="110" as="geometry" />
        </mxCell>
        <mxCell id="Yz_5xkrLealIDKz5aNyy-3" value="Title" style="rounded=0;whiteSpace=wrap;html=1;" vertex="1" parent="1">
          <mxGeometry x="220" y="490" width="230" height="20" as="geometry" />
        </mxCell>
        <mxCell id="Yz_5xkrLealIDKz5aNyy-4" value="Description" style="rounded=0;whiteSpace=wrap;html=1;" vertex="1" parent="1">
          <mxGeometry x="220" y="520" width="230" height="50" as="geometry" />
        </mxCell>
        <mxCell id="Yz_5xkrLealIDKz5aNyy-5" value="Topic" style="rounded=0;whiteSpace=wrap;html=1;" vertex="1" parent="1">
          <mxGeometry x="220" y="460" width="80" height="20" as="geometry" />
        </mxCell>
        <mxCell id="Yz_5xkrLealIDKz5aNyy-6" value="" style="rounded=1;whiteSpace=wrap;html=1;" vertex="1" parent="1">
          <mxGeometry x="40" y="610" width="430" height="130" as="geometry" />
        </mxCell>
        <mxCell id="Yz_5xkrLealIDKz5aNyy-7" value="Image" style="rounded=0;whiteSpace=wrap;html=1;" vertex="1" parent="1">
          <mxGeometry x="60" y="620" width="150" height="110" as="geometry" />
        </mxCell>
        <mxCell id="Yz_5xkrLealIDKz5aNyy-8" value="Title" style="rounded=0;whiteSpace=wrap;html=1;" vertex="1" parent="1">
          <mxGeometry x="220" y="650" width="230" height="20" as="geometry" />
        </mxCell>
        <mxCell id="Yz_5xkrLealIDKz5aNyy-9" value="Description" style="rounded=0;whiteSpace=wrap;html=1;" vertex="1" parent="1">
          <mxGeometry x="220" y="680" width="230" height="50" as="geometry" />
        </mxCell>
        <mxCell id="Yz_5xkrLealIDKz5aNyy-10" value="Topic" style="rounded=0;whiteSpace=wrap;html=1;" vertex="1" parent="1">
          <mxGeometry x="220" y="620" width="80" height="20" as="geometry" />
        </mxCell>
        <mxCell id="Yz_5xkrLealIDKz5aNyy-11" value="" style="rounded=1;whiteSpace=wrap;html=1;" vertex="1" parent="1">
          <mxGeometry x="40" y="770" width="430" height="130" as="geometry" />
        </mxCell>
        <mxCell id="Yz_5xkrLealIDKz5aNyy-12" value="Image" style="rounded=0;whiteSpace=wrap;html=1;" vertex="1" parent="1">
          <mxGeometry x="60" y="780" width="150" height="110" as="geometry" />
        </mxCell>
        <mxCell id="Yz_5xkrLealIDKz5aNyy-13" value="Title" style="rounded=0;whiteSpace=wrap;html=1;" vertex="1" parent="1">
          <mxGeometry x="220" y="810" width="230" height="20" as="geometry" />
        </mxCell>
        <mxCell id="Yz_5xkrLealIDKz5aNyy-14" value="Description" style="rounded=0;whiteSpace=wrap;html=1;" vertex="1" parent="1">
          <mxGeometry x="220" y="840" width="230" height="50" as="geometry" />
        </mxCell>
        <mxCell id="Yz_5xkrLealIDKz5aNyy-15" value="Topic" style="rounded=0;whiteSpace=wrap;html=1;" vertex="1" parent="1">
          <mxGeometry x="220" y="780" width="80" height="20" as="geometry" />
        </mxCell>
        <mxCell id="Yz_5xkrLealIDKz5aNyy-16" value="" style="rounded=1;whiteSpace=wrap;html=1;" vertex="1" parent="1">
          <mxGeometry x="40" y="930" width="430" height="130" as="geometry" />
        </mxCell>
        <mxCell id="Yz_5xkrLealIDKz5aNyy-17" value="Image" style="rounded=0;whiteSpace=wrap;html=1;" vertex="1" parent="1">
          <mxGeometry x="60" y="940" width="150" height="110" as="geometry" />
        </mxCell>
        <mxCell id="Yz_5xkrLealIDKz5aNyy-18" value="Title" style="rounded=0;whiteSpace=wrap;html=1;" vertex="1" parent="1">
          <mxGeometry x="220" y="970" width="230" height="20" as="geometry" />
        </mxCell>
        <mxCell id="Yz_5xkrLealIDKz5aNyy-19" value="Description" style="rounded=0;whiteSpace=wrap;html=1;" vertex="1" parent="1">
          <mxGeometry x="220" y="1000" width="230" height="50" as="geometry" />
        </mxCell>
        <mxCell id="Yz_5xkrLealIDKz5aNyy-20" value="Topic" style="rounded=0;whiteSpace=wrap;html=1;" vertex="1" parent="1">
          <mxGeometry x="220" y="940" width="80" height="20" as="geometry" />
        </mxCell>
      </root>
    </mxGraphModel>
  </diagram>
</mxfile>
